<mxfile host="Electron" modified="2024-02-08T00:41:58.145Z" agent="Mozilla/5.0 (Windows NT 10.0; Win64; x64) AppleWebKit/537.36 (KHTML, like Gecko) draw.io/21.6.8 Chrome/114.0.5735.289 Electron/25.5.0 Safari/537.36" etag="jyZUD3-PY9YsuPKsBfMN" version="21.6.8" type="device">
  <diagram name="Page-1" id="2YBvvXClWsGukQMizWep">
    <mxGraphModel dx="864" dy="508" grid="1" gridSize="10" guides="1" tooltips="1" connect="1" arrows="1" fold="1" page="1" pageScale="1" pageWidth="850" pageHeight="1100" math="0" shadow="0">
      <root>
        <mxCell id="0" />
        <mxCell id="1" parent="0" />
        <mxCell id="Wa8DaFeyTKGVyshBubR_-6" value="&lt;font face=&quot;Montserrat&quot;&gt;Pass Tags&lt;/font&gt;" style="edgeStyle=orthogonalEdgeStyle;rounded=0;orthogonalLoop=1;jettySize=auto;html=1;exitX=0.5;exitY=1;exitDx=0;exitDy=0;entryX=0.75;entryY=0;entryDx=0;entryDy=0;" edge="1" parent="1" source="Wa8DaFeyTKGVyshBubR_-1" target="Wa8DaFeyTKGVyshBubR_-4">
          <mxGeometry relative="1" as="geometry">
            <Array as="points">
              <mxPoint x="630" y="240" />
              <mxPoint x="413" y="240" />
            </Array>
          </mxGeometry>
        </mxCell>
        <mxCell id="Wa8DaFeyTKGVyshBubR_-1" value="&lt;font face=&quot;Montserrat&quot; style=&quot;font-size: 11px;&quot;&gt;MongoDB&lt;/font&gt;" style="shape=datastore;whiteSpace=wrap;html=1;fontStyle=1;verticalAlign=middle;fontSize=11;fillColor=#f5f5f5;strokeColor=#666666;fontColor=#333333;" vertex="1" parent="1">
          <mxGeometry x="600" y="110" width="60" height="60" as="geometry" />
        </mxCell>
        <mxCell id="Wa8DaFeyTKGVyshBubR_-7" value="Pass Mp3" style="edgeStyle=orthogonalEdgeStyle;rounded=0;orthogonalLoop=1;jettySize=auto;html=1;exitX=0;exitY=0.5;exitDx=0;exitDy=0;entryX=1;entryY=0.5;entryDx=0;entryDy=0;fontFamily=Montserrat;" edge="1" parent="1" source="Wa8DaFeyTKGVyshBubR_-2" target="Wa8DaFeyTKGVyshBubR_-4">
          <mxGeometry relative="1" as="geometry" />
        </mxCell>
        <mxCell id="Wa8DaFeyTKGVyshBubR_-2" value="&lt;font face=&quot;Montserrat&quot;&gt;FFmpeg&lt;/font&gt;" style="rounded=1;whiteSpace=wrap;html=1;fillColor=#f5f5f5;fontColor=#333333;strokeColor=#666666;fontStyle=1" vertex="1" parent="1">
          <mxGeometry x="540" y="270" width="80" height="40" as="geometry" />
        </mxCell>
        <mxCell id="Wa8DaFeyTKGVyshBubR_-10" value="Package Files" style="edgeStyle=orthogonalEdgeStyle;rounded=0;orthogonalLoop=1;jettySize=auto;html=1;exitX=0.5;exitY=0;exitDx=0;exitDy=0;entryX=0.5;entryY=1;entryDx=0;entryDy=0;fontFamily=Montserrat;" edge="1" parent="1" source="Wa8DaFeyTKGVyshBubR_-4" target="Wa8DaFeyTKGVyshBubR_-5">
          <mxGeometry relative="1" as="geometry" />
        </mxCell>
        <mxCell id="Wa8DaFeyTKGVyshBubR_-4" value="&lt;font face=&quot;Montserrat&quot;&gt;Tag Applicator (n/a)&lt;/font&gt;" style="rounded=1;whiteSpace=wrap;html=1;fillColor=#f5f5f5;fontColor=#333333;strokeColor=#666666;fontStyle=1" vertex="1" parent="1">
          <mxGeometry x="330" y="270" width="110" height="40" as="geometry" />
        </mxCell>
        <mxCell id="Wa8DaFeyTKGVyshBubR_-13" value="Deliver Files" style="edgeStyle=orthogonalEdgeStyle;rounded=0;orthogonalLoop=1;jettySize=auto;html=1;exitX=0;exitY=0.5;exitDx=0;exitDy=0;fontFamily=Montserrat;" edge="1" parent="1" source="Wa8DaFeyTKGVyshBubR_-5" target="Wa8DaFeyTKGVyshBubR_-11">
          <mxGeometry relative="1" as="geometry" />
        </mxCell>
        <mxCell id="Wa8DaFeyTKGVyshBubR_-16" value="&lt;font face=&quot;Montserrat&quot;&gt;Tag Retrieval&lt;/font&gt;" style="edgeStyle=orthogonalEdgeStyle;rounded=0;orthogonalLoop=1;jettySize=auto;html=1;exitX=1;exitY=0.5;exitDx=0;exitDy=0;entryX=0;entryY=0.5;entryDx=0;entryDy=0;" edge="1" parent="1" source="Wa8DaFeyTKGVyshBubR_-5" target="Wa8DaFeyTKGVyshBubR_-1">
          <mxGeometry relative="1" as="geometry" />
        </mxCell>
        <mxCell id="Wa8DaFeyTKGVyshBubR_-17" value="File Retrieval" style="edgeStyle=orthogonalEdgeStyle;rounded=0;orthogonalLoop=1;jettySize=auto;html=1;exitX=0.5;exitY=0;exitDx=0;exitDy=0;entryX=0.5;entryY=0;entryDx=0;entryDy=0;fontFamily=Montserrat;" edge="1" parent="1" source="Wa8DaFeyTKGVyshBubR_-5" target="Wa8DaFeyTKGVyshBubR_-8">
          <mxGeometry x="-0.0007" relative="1" as="geometry">
            <mxPoint as="offset" />
          </mxGeometry>
        </mxCell>
        <mxCell id="Wa8DaFeyTKGVyshBubR_-5" value="&lt;font face=&quot;Montserrat&quot;&gt;Node.JS&lt;/font&gt;" style="rounded=1;whiteSpace=wrap;html=1;fontStyle=1;fillColor=#f5f5f5;fontColor=#333333;strokeColor=#666666;" vertex="1" parent="1">
          <mxGeometry x="325" y="110" width="120" height="60" as="geometry" />
        </mxCell>
        <mxCell id="Wa8DaFeyTKGVyshBubR_-9" value="&lt;font face=&quot;Montserrat&quot;&gt;Convert Files&lt;/font&gt;" style="edgeStyle=orthogonalEdgeStyle;rounded=0;orthogonalLoop=1;jettySize=auto;html=1;exitX=0;exitY=0.5;exitDx=0;exitDy=0;entryX=1;entryY=0.5;entryDx=0;entryDy=0;" edge="1" parent="1" source="Wa8DaFeyTKGVyshBubR_-8" target="Wa8DaFeyTKGVyshBubR_-2">
          <mxGeometry relative="1" as="geometry" />
        </mxCell>
        <mxCell id="Wa8DaFeyTKGVyshBubR_-8" value="&lt;font face=&quot;Montserrat&quot; style=&quot;font-size: 11px;&quot;&gt;File System&lt;/font&gt;" style="shape=datastore;whiteSpace=wrap;html=1;fontStyle=1;verticalAlign=middle;fontSize=11;fillColor=#f5f5f5;strokeColor=#666666;fontColor=#333333;" vertex="1" parent="1">
          <mxGeometry x="730" y="260" width="60" height="60" as="geometry" />
        </mxCell>
        <mxCell id="Wa8DaFeyTKGVyshBubR_-15" value="&lt;font face=&quot;Montserrat&quot;&gt;Export Request&lt;/font&gt;" style="edgeStyle=orthogonalEdgeStyle;rounded=0;orthogonalLoop=1;jettySize=auto;html=1;exitX=1;exitY=0.3333333333333333;exitDx=0;exitDy=0;exitPerimeter=0;entryX=0.025;entryY=0.321;entryDx=0;entryDy=0;entryPerimeter=0;" edge="1" parent="1" source="Wa8DaFeyTKGVyshBubR_-11" target="Wa8DaFeyTKGVyshBubR_-5">
          <mxGeometry relative="1" as="geometry" />
        </mxCell>
        <mxCell id="Wa8DaFeyTKGVyshBubR_-11" value="&lt;font face=&quot;Montserrat&quot;&gt;&lt;b&gt;User&lt;/b&gt;&lt;/font&gt;" style="shape=umlActor;verticalLabelPosition=bottom;verticalAlign=top;html=1;outlineConnect=0;" vertex="1" parent="1">
          <mxGeometry x="140" y="110" width="30" height="60" as="geometry" />
        </mxCell>
      </root>
    </mxGraphModel>
  </diagram>
</mxfile>
